<svg width="31" height="8" viewBox="0 0 31 8" fill="none" xmlns="http://www.w3.org/2000/svg">
<path fill-rule="evenodd" clip-rule="evenodd" d="M4.57682 7.92341C6.59478 7.92341 8.23067 6.28753 8.23067 4.26957C8.23067 2.25161 6.59478 0.615723 4.57682 0.615723C2.55886 0.615723 0.922974 2.25161 0.922974 4.26957C0.922974 6.28753 2.55886 7.92341 4.57682 7.92341Z" fill="#FF3F30"/>
<path fill-rule="evenodd" clip-rule="evenodd" d="M15.5384 7.92317C17.5564 7.92317 19.1923 6.28729 19.1923 4.26932C19.1923 2.25136 17.5564 0.615479 15.5384 0.615479C13.5205 0.615479 11.8846 2.25136 11.8846 4.26932C11.8846 6.28729 13.5205 7.92317 15.5384 7.92317Z" fill="#FFD26F"/>
<path fill-rule="evenodd" clip-rule="evenodd" d="M26.4999 7.92317C28.5179 7.92317 30.1538 6.28729 30.1538 4.26932C30.1538 2.25136 28.5179 0.615479 26.4999 0.615479C24.482 0.615479 22.8461 2.25136 22.8461 4.26932C22.8461 6.28729 24.482 7.92317 26.4999 7.92317Z" fill="#20B763"/>
</svg>
